<svg xmlns="http://www.w3.org/2000/svg" xmlns:xlink="http://www.w3.org/1999/xlink" viewBox="0 0 1080 1080"><defs><style>.cls-1{fill:#42b166;}.cls-2{fill:url(#linear-gradient);}.cls-3{fill:#2179b8;}.cls-4{stroke-miterlimit:10;fill:url(#linear-gradient-2);stroke:url(#linear-gradient-3);}.cls-5{fill:#217abc;}</style><linearGradient id="linear-gradient" x1="274.17" y1="869.66" x2="822.15" y2="869.66" gradientUnits="userSpaceOnUse"><stop offset="0" stop-color="#247db9"/><stop offset="1" stop-color="#34b559"/></linearGradient><linearGradient id="linear-gradient-2" x1="45.09" y1="509.07" x2="1051.23" y2="509.07" xlink:href="#linear-gradient"/><linearGradient id="linear-gradient-3" x1="44.59" y1="509.07" x2="1051.73" y2="509.07" xlink:href="#linear-gradient"/></defs><title>DigitalClub</title><g id="Layer_3" data-name="Layer 3"><path class="cls-1" d="M461.53,673.62a7.75,7.75,0,0,1-1.18,3.87Q449,698.31,427.69,700.76q-21.79,2.52-36.8-14.72-14.59-16.66-16.74-44.39-2.07-26.83,9.4-47,12-21.15,32.78-23.55,22.62-2.59,36.84,13.48a6,6,0,0,1,1.66,3.28q.12,1.68-3.89,13t-5.18,12.8a1.76,1.76,0,0,1-1.34.86c-.24,0-1.49-1-3.77-3.12a36.24,36.24,0,0,0-7.91-5.77A20.5,20.5,0,0,0,421,603.38q-10.26,1.18-15.66,11.6-5,9.66-3.94,22.9,1,13.43,7.4,21.86,6.9,9.18,17.17,8a22.47,22.47,0,0,0,11.27-4.69,38.67,38.67,0,0,0,6.79-7q2.81-3.7,3.16-3.75a1.8,1.8,0,0,1,1.47.81q1.24,1.46,6.93,10.33Q461.45,672.64,461.53,673.62Z"/><path class="cls-1" d="M534.92,686.8q-6,.69-15.67,1.45l-15.68,1.36-20.91,2.06c-2.1.3-5.1.53-9,.68a2.35,2.35,0,0,1-2.24-2.5q-.74-9.61-2-28.85t-2-28.86q-.8-10.23-2.87-30.62t-2.85-30.63c-.1-1.28.54-2,1.94-2.18s3.49-.31,6.27-.45,4.85-.29,6.2-.45c1.54-.18,3.82-.54,6.83-1.1s5.28-.92,6.82-1.1c.7-.08,1.06.45,1.1,1.57l0,1.16q.45,16.68,2,50.09l1.73,23.32c.59,7.53,1,13,1.35,16.5l.3,2.11a1.29,1.29,0,0,0,1.15,1.2l1.82-.21q6.29-.72,18.76-3t18.76-3c1.25-.14,1.94.46,2,1.82a169,169,0,0,1,.27,26.24c-.12,1.56-.54,2.52-1.26,2.91A12.12,12.12,0,0,1,534.92,686.8Z"/><path class="cls-1" d="M628.89,630.73q1.74,22.5-1.89,31.21-6.66,15.91-37.88,19.51-14.11,1.62-21.94-.23a23.15,23.15,0,0,1-17.08-15.05q-2.29-5.88-3.5-21.51-.27-3.61-.62-10.79t-.62-10.71q-.79-10.24-3.14-30.63T539.08,562c-.11-1.41.33-2.18,1.31-2.29q4.26-.5,12.92-1.05t12.92-1c1.16-.13,1.79.45,1.9,1.74q.9,11.65,2.1,35t2.1,35q1.08,13.88,3.76,18.45,3.57,6.27,13.36,5.14,14.32-1.65,13-19.21-1-12.8-3.46-38.35T595.5,557c-.14-1.82.37-2.81,1.53-2.94q4.13-.48,12.4-1.88t12.4-1.87c1.35-.15,2.08.47,2.19,1.88q.78,10.16,1.7,30.72t1.71,30.8c.15,1.89.39,4.72.73,8.51S628.74,628.84,628.89,630.73Z"/><path class="cls-1" d="M725.61,624.83q1.26,16.24-6,27.85-8.2,13.34-31.18,16c-1.17.14-2.85.3-5,.5l-5,.57q-25.77,3-30.76,2.21a2.44,2.44,0,0,1-2.24-2.5q-.72-9.45-1.34-28.71t-1.34-28.79q-.79-10.24-3.82-38.4-.76-7.21-2.44-21.62l-.16-1.23c-.14-1.12.54-1.88,2-2.29s6.87-1.14,16.14-2.21q22.28-2.56,26.06-2.84,17.25-1.19,25.9,4.15,11.47,7.14,13,27.09a28.44,28.44,0,0,1-1.66,11.32,49.22,49.22,0,0,1-4.11,8.85c-1.54,2.62-2.31,3.83-2.32,3.66,0,.41.68,1,2,1.73q5.18,3,8.55,10.33A41.62,41.62,0,0,1,725.61,624.83Zm-33.88-46.25q-.59-7.58-6.78-9.37-3.45-.93-11.14-.05t-7.43,2.28c.08,1.12.13,2.83.14,5.11s.07,4,.15,5.1q.69,8.83,2,9.75c.55.48,3.52.4,8.93-.22Q692.58,589.44,691.73,578.58Zm5.91,49.12c-.41-5.3-2.43-8.68-6.07-10.17q-3.48-1.38-11-.51c-6,.69-9.24,1.35-9.72,2s-.44,4.26.07,10.91q.81,10.41,1.8,11.41t10.14,0q7.54-.87,10.51-2.72Q698.23,635.38,697.64,627.7Z"/><path class="cls-1" d="M443.69,583.12a7.62,7.62,0,0,0-.93-1.33c-4.92-5.61-11.39-9.34-17.72-12.47,2.95-8.67,5.77-17.41,8.31-26.26a5.39,5.39,0,0,0,1.7-.41l32.13-13.37c7.28-3,4.15-17.08-3.2-14q-15.94,6.62-31.87,13.26a10.09,10.09,0,0,0-11.62-2.69l-21.56-29.17c-5.17-7-13.65,3.31-8.51,10.27L412,536.13a7.2,7.2,0,0,0,1.36,1.39c-2.72,9.35-5.73,18.59-8.87,27.74a10.41,10.41,0,0,0-.49,2.25l-.17.06c-7.4,3.52-15.46,7.53-21.31,14.22a7.35,7.35,0,0,0-1.8,4,9,9,0,0,0-.34,7q4.84,13.43,9.53,26.94c1.27,3.65,3.93,6.23,7.4,5.08,2.86-1,5.47-5.28,4.2-8.94q-4.41-12.71-8.93-25.34a48.3,48.3,0,0,1,8.36-5.67c1.56-.91,3.14-1.76,4.73-2.59l1.36-.67c1-.49,4.52-3.86,9.63-1a7.55,7.55,0,0,0,1.61,1l1.31.65c1.61.83,3.2,1.71,4.77,2.61,3.14,1.8,6.55,3.74,9.23,6.49q.66,13.88,1.46,27.72c.54,9.29,12.58,9.35,12,0q-.9-15.56-1.64-31.12A7.89,7.89,0,0,0,443.69,583.12Z"/><ellipse class="cls-1" cx="429.77" cy="511.37" rx="9.93" ry="11.99"/><polygon class="cls-1" points="481.33 540.74 480.51 536.49 439.7 550.24 481.33 540.74"/><polygon class="cls-1" points="372.5 519.87 370.52 523.51 406.88 549.76 372.5 519.87"/><polygon class="cls-1" points="391.15 525 405.09 543.1 394 522.32 391.15 525"/><polygon class="cls-1" points="457.65 565.11 458.7 560.94 438.66 555.9 457.65 565.11"/><path class="cls-2" d="M822.15,898.69c-23-37.26-177.55-35.07-177.55-35.07l-6.5-64.22a22.4,22.4,0,0,0-24.62-20L480,793.39a22.4,22.4,0,0,0-20,24.05L466,892.11c-83.29,6.58-191.79,67.95-191.79,67.95C373.9,919.51,822.15,898.69,822.15,898.69ZM504,912.44a1.31,1.31,0,0,1-1.43-1.17l-1.37-14.33,2.63-.25,1.24,13,13.31-1.26.24,2.58Zm22.91-24.52a1.32,1.32,0,0,1-1.18-.51,1.28,1.28,0,0,1,.26-1.81c9-6.66,20.9-17.4,26.6-30.77a1.33,1.33,0,0,1,1.73-.7,1.28,1.28,0,0,1,.7,1.7c-5.92,13.89-18.19,25-27.44,31.83A1.29,1.29,0,0,1,526.88,887.92Zm8.41,4.94a1.33,1.33,0,0,1-1.15-.47,1.27,1.27,0,0,1,.2-1.82,150,150,0,0,0,20-18.89c3.19-3.62,8.43-10.75,7.75-17.93-.41-4.31-3.81-8.61-9.3-8.09-4.89.47-8.11,6.34-11.22,12a47.93,47.93,0,0,1-5.09,8c-5,5.84-10.48,9.55-16.54,13.44a1.33,1.33,0,0,1-1.83-.36,1.28,1.28,0,0,1,.39-1.8c5.89-3.79,11.16-7.37,16-13a45.67,45.67,0,0,0,4.77-7.58c3.45-6.28,7-12.77,13.31-13.36,6.94-.66,11.64,4.77,12.18,10.42.77,8.13-4.92,15.93-8.39,19.86A151.34,151.34,0,0,1,536,892.58,1.37,1.37,0,0,1,535.29,892.86Zm26.36,3.24-.12,0a1.29,1.29,0,0,1-1.42-1c-.64-3.39-3.1-6.64-7.16-6.25-3.75.35-5.74,2.65-7.74,6.24a1.34,1.34,0,0,1-1.8.52,1.28,1.28,0,0,1-.52-1.76c2-3.65,4.63-7.09,9.81-7.58,5.69-.55,9.17,4,10,8.35A1.29,1.29,0,0,1,561.65,896.1Zm12.16-4.51a1.31,1.31,0,0,1-1.06.73,1.36,1.36,0,0,1-.71-.13c-6.11-2.91-10.07-8-10.6-13.49a16.35,16.35,0,0,1,.54-6,1.34,1.34,0,0,1,1.64-.89,1.29,1.29,0,0,1,.89,1.61,14,14,0,0,0-.43,5c.43,4.56,3.93,8.93,9.12,11.41A1.28,1.28,0,0,1,573.81,891.59Zm11-7.59a1.29,1.29,0,0,1-1.14.94,1.37,1.37,0,0,1-.49-.05c-10.09-2.82-12.87-10.35-13.42-16.16a35,35,0,0,1,.33-7.43,44.34,44.34,0,0,0,.34-9.84A16.88,16.88,0,0,0,552,836.9c-9.33.88-14.31,8.47-16.44,12.92s-8,15-18.25,19.81a1.34,1.34,0,0,1-1.77-.6,1.31,1.31,0,0,1,.62-1.74c6.56-3.1,12.91-10,17-18.57,2.37-4.94,8-13.39,18.58-14.4,11.71-1.12,20.5,7.83,21.36,16.88a46.65,46.65,0,0,1-.34,10.37,31.44,31.44,0,0,0-.33,6.9c.47,5,2.86,11.5,11.52,13.92A1.29,1.29,0,0,1,584.82,884Zm28.64,2.27,1.36,14.33a1.31,1.31,0,0,1-1.2,1.41L599,903.4l-.24-2.58,13.3-1.26-1.24-13ZM603.16,792a1.31,1.31,0,0,1,1.44,1.17L606,807.46l-2.63.25-1.24-13-13.3,1.26-.25-2.58Zm-15.72,45.56a1.35,1.35,0,0,1,1.81.45,27.9,27.9,0,0,1,3.76,12.3c.66,6.92-.49,13.58-3.06,17.81a1.32,1.32,0,0,1-1.81.46,1.27,1.27,0,0,1-.46-1.77c2.26-3.73,3.29-9.95,2.69-16.25a25.05,25.05,0,0,0-3.4-11.23A1.28,1.28,0,0,1,587.44,837.52Zm-69.22-13.18a45.15,45.15,0,0,1,31.3-16.43l.18,0A46.1,46.1,0,0,1,583,818.32a1.27,1.27,0,0,1,.15,1.82,1.33,1.33,0,0,1-1.86.16,43.41,43.41,0,0,0-31.39-9.83h-.16A42.57,42.57,0,0,0,520.28,826a1.35,1.35,0,0,1-1.86.2A1.27,1.27,0,0,1,518.22,824.34Zm-2.94,18.15c5.46-10.07,15-23.67,34.78-25.55a41,41,0,0,1,35.69,14.73,1.27,1.27,0,0,1-.2,1.82,1.33,1.33,0,0,1-1.86-.2,38.33,38.33,0,0,0-33.38-13.77c-18.51,1.76-27.52,14.64-32.7,24.18a1.3,1.3,0,0,1-1,.68,1.33,1.33,0,0,1-.75-.14A1.28,1.28,0,0,1,515.28,842.49Zm-.31,13c4.54-2.33,8-8,10.62-12.06.58-.93,1.12-1.79,1.62-2.53,4.73-7,10.45-14,23.67-15.29,17.59-1.67,29.71,10.35,30.86,22.46a36.57,36.57,0,0,1-.14,9.79,27,27,0,0,0-.17,7.09c.57,5.94,2.37,8.36,7.41,10a1.28,1.28,0,0,1,.84,1.63,1.3,1.3,0,0,1-1.12.88,1.25,1.25,0,0,1-.54-.06c-6.91-2.2-8.66-6.28-9.22-12.17a28.54,28.54,0,0,1,.19-7.67,34.4,34.4,0,0,0,.12-9.21c-1-10.86-12-21.64-28-20.13-12.06,1.15-17.34,7.61-21.71,14.13-.48.73-1,1.56-1.58,2.47-2.73,4.37-6.46,10.35-11.66,13a1.33,1.33,0,0,1-1.78-.55A1.27,1.27,0,0,1,515,855.5Zm-21.46-53.12L508.13,801l.25,2.58-13.31,1.27,1.24,13-2.63.25-1.36-14.33A1.32,1.32,0,0,1,493.51,802.38Z"/><path class="cls-3" d="M154,250.87l.57,13.14-15.92,4,10.4,3.57L136.54,287.1l19-.83,8.55,155c-20.79-4.56-41.2.8-52.8,14.75A44,44,0,0,0,102,476.83a4.64,4.64,0,0,0,.75-1.18c.17-.39.19-.59.32-.61.42-.07,1.09,2.11,1.21,2.07s-.22-.91-.32-1.88a8,8,0,0,1,.36-3.1,31.78,31.78,0,0,1,2.84-7.12c3.36-5.73,9.24-9.83,10.61-10.77q-4.42,31.67-8.86,63.33l6.2-.27L125,484.69l6.6.45,21.7,28.31,5.84-.26-13.4-30.86s-4.7-7.11,19.44-15.47l7.44,45,4,.19-1.16-26.64,5.84-.26,2.92,25.11,5.12.14.56-37.69s1.89-7,6.21-.27l4.31,6.76,8.12,27.08,27-1.9-27.08-76.35-1.56-10.72,11-59.17-27.7,1.94-4.26,45.16-4,.54L163,282.66,163,272.42l10.32-6.66.85-5.53-13.45,1.69Z"/><path class="cls-4" d="M45.09,338.65l7.67,446.06s4.39,31.78,32.88,32.88L1013.93,731s44.93-9.87,36.16-43.84L985.43,277.28l-9.86-63.57s-3.29-7.67-23-13.15l-322.21,4.38,290.43,26.3,19.51,14,55,395.9s11,36.16-24.12,37.26l-845,71.24s-15.34-5.48-17.53-30.69Z"/><path class="cls-5" d="M281.21,419.27q.39,12.57,1.57,37.78t1.58,37.78a4.09,4.09,0,0,1-.49,2.71,9.21,9.21,0,0,1-1.65.57,59.74,59.74,0,0,1-11.13,1.83q-9.36.81-11.95.18c-1.25-.31-1.91-1.36-2-3.14q0,1.71,0-18.79-.2-43.24-.63-56.77-.36-11.4-1.53-34.16t-1.52-34.15c0-1.56.41-2.39,1.4-2.47,1.32-.12,3.32-.18,6-.2s4.68-.09,6-.21,3.28-.39,5.86-.83,4.53-.71,5.85-.83,1.89.62,1.94,2.19q.36,11.39.34,34.25T281.21,419.27Z"/><path class="cls-5" d="M371.65,437.88q.86,27.17-2.74,37.41-6.62,18.73-35.26,21.23-13,1.13-20-1.57-11.33-4.35-15.13-19.08-1.89-7.2-2.49-26.06-.14-4.37-.22-13t-.21-12.91q-.39-12.34-1.88-37T291.81,350c-.05-1.7.37-2.59,1.27-2.67q3.9-.35,11.84-.49t11.84-.5c1.07-.1,1.63.64,1.68,2.2q.44,14.07.78,42.18t.79,42.17q.53,16.72,2.82,22.4,3.07,7.74,12.05,7,13.14-1.14,12.47-22.34-.48-15.45-1.91-46.3t-1.91-46.29c-.07-2.2.43-3.35,1.5-3.44q3.78-.33,11.39-1.53t11.39-1.53c1.24-.11,1.89.69,1.94,2.4q.39,12.24.56,37t.56,37.12c.07,2.28.2,5.7.39,10.28S371.57,435.61,371.65,437.88Z"/><path class="cls-5" d="M443.25,366.79c.05,1.42-.4,2.18-1.34,2.26q-2.45.21-19.35.08.46,27,.81,37.63.39,12.57,1.8,37.77t1.8,37.76a3.83,3.83,0,0,1-.5,2.6,5,5,0,0,1-1.78.69,57.61,57.61,0,0,1-11.25,1.84q-8.26.72-11.63.15c-1.21-.25-1.84-1.29-1.9-3.14q-.39-12.57-.54-37.77t-.55-37.76q-.27-8.31-1.69-37a135.07,135.07,0,0,1-20.37,3.91c-.69.06-1-.27-1.06-1q0-1.38.63-8.28.8-7.54.87-9.15c0-3.35.07-6.7.14-10.05.13-5.36.56-8.06,1.28-8.13l.9,0q10.46,1.33,30.78-.43,5.76-.51,21.21-3.88l8.36-1.8c.86-.07,1.35,0,1.49.14a6,6,0,0,1,.32,2.06c.06,1.91.1,4.58.12,8,0,3.78.08,6.44.13,8q.07,2.67.66,7.8T443.25,366.79Z"/><path class="cls-5" d="M535.06,400.24q1,31.32-10.4,55.38-10.06,21.5-29.38,24.24-3.72.54-20.44,2c-2.1.18-5.25.35-9.47.5s-7.37.32-9.46.5c-1.24.11-1.89-.65-1.94-2.29q-.36-11.71-.56-35.25t-.57-35.25q-.39-12.24-1.7-36.65t-1.7-36.54a2.53,2.53,0,0,1,1.78-2.82,92.48,92.48,0,0,1,14.9-2.16q19.74-1.71,25.61-1.26,15.27,1.23,24.18,10.71,8.39,8.88,13.6,25.73A123,123,0,0,1,535.06,400.24Zm-24.55,2.14q-.57-18-7.4-28.84-6.92-11.25-17.68-10.31-9.87.86-9.73,5.22.19,6.29.46,18.92t.47,18.92q.19,6.18.72,18.58t.71,18.68q.15,4.57,10.4,3.69,11.1-1,17.05-13.77Q511.11,421.34,510.51,402.38Z"/><path class="cls-5" d="M570.91,393.91q.4,12.57,1.58,37.78t1.58,37.78c0,1.43-.12,2.33-.49,2.72a9.15,9.15,0,0,1-1.66.57,58.9,58.9,0,0,1-11.12,1.82q-9.36.81-11.95.19c-1.26-.32-1.91-1.37-2-3.14q.06,1.69,0-18.8-.21-43.24-.63-56.77-.36-11.38-1.53-34.15t-1.53-34.15c0-1.57.42-2.39,1.4-2.48q2-.16,6-.2t6-.2c1.32-.12,3.27-.39,5.85-.83s4.53-.72,5.86-.83,1.88.62,1.93,2.18q.36,11.4.34,34.26T570.91,393.91Z"/><path class="cls-5" d="M670.71,460.74c.15,1.91-.42,2.92-1.7,3-.81.07-3.18-.51-7.09-1.73a58.29,58.29,0,0,1-7.25-2.58q-13.12,9.92-25.43,11-19.8,1.72-33.19-19.12-13.24-20.52-14.28-53.55Q580.7,364,592.18,340.68q11.84-24.09,31.9-25.84a29.57,29.57,0,0,1,18.53,4.58q9.5,6,15.21,17.9a10.61,10.61,0,0,1,1.21,3.52q.11,3.42-5.26,15.79t-7,12.52q-.39,0-3.09-4.11A31.75,31.75,0,0,0,637,357.5a15,15,0,0,0-10.9-3.43q-9.62.84-14.88,13.26-4.92,11.43-4.39,27.83.54,17.37,6.31,27,6,9.94,16.29,9.05,6.54-.57,14.44-6.7-.3-3.51-1.71-17.8-1.18-11-1.4-17.82c0-1.35.21-2.19.75-2.52a2.08,2.08,0,0,1,1-.31,41.54,41.54,0,0,1,5.63.1,37.52,37.52,0,0,0,5.69.09,58.76,58.76,0,0,0,6.14-1,59,59,0,0,1,6.14-1c1.06-.09,1.64,1,1.71,3.38q.17,5.11.13,15.47t.14,15.48q.43,13.74,2.51,41Z"/><path class="cls-5" d="M703.34,382.38q.39,12.57,1.57,37.78t1.58,37.78c0,1.42-.12,2.33-.49,2.71a9.62,9.62,0,0,1-1.66.58,60.57,60.57,0,0,1-11.12,1.82q-9.36.81-12,.19c-1.25-.32-1.91-1.37-2-3.15q0,1.71,0-18.79-.21-43.24-.63-56.77-.36-11.4-1.53-34.15t-1.52-34.16c-.05-1.56.41-2.38,1.4-2.47,1.32-.12,3.32-.18,6-.2s4.68-.09,6-.2,3.28-.4,5.86-.83,4.53-.72,5.85-.84,1.88.62,1.93,2.19q.36,11.4.34,34.25T703.34,382.38Z"/><path class="cls-5" d="M777.64,337.67q.06,2.13-1.35,2.25-2.43.22-19.34.09.46,27,.8,37.63.4,12.57,1.8,37.76t1.81,37.76a3.92,3.92,0,0,1-.5,2.61,5.56,5.56,0,0,1-1.78.69,57.12,57.12,0,0,1-11.25,1.83q-8.28.72-11.63.16c-1.21-.25-1.84-1.3-1.9-3.14q-.39-12.57-.55-37.77t-.55-37.76q-.26-8.31-1.68-37a135.18,135.18,0,0,1-20.38,3.92c-.68.06-1-.27-1.06-1,0-.92.19-3.68.64-8.28q.79-7.55.87-9.16c0-3.34.07-6.69.13-10.05q.19-8,1.29-8.12.13,0,.9,0,10.46,1.33,30.77-.44,5.77-.5,21.22-3.88l8.36-1.79c.86-.08,1.35,0,1.48.14a5.59,5.59,0,0,1,.33,2.05q.09,2.88.12,8,0,5.65.12,8c.06,1.78.28,4.37.67,7.79S777.58,336,777.64,337.67Z"/><path class="cls-5" d="M872.64,443.9a2.87,2.87,0,0,1-1.52,2.8q-1.89,1-11.9,1.89-9.16.8-11.82.18-2.19-.56-2.9-4.56-2.67-15.15-3.92-16.11-1.05-.64-17.2.76-10.89.94-11.57,2-1,1.8-2.07,11.61-.94,9-2.65,9.85-2.16,1-14.59,2.12-9.81.86-9.9-2.23-.09-2.78,12.34-69.33,13.47-72,14.6-79.14c.43-2.74,1-4.14,1.66-4.2a39.93,39.93,0,0,1,5.37.07,42.36,42.36,0,0,0,5.44.06c1.15-.1,2.84-.38,5.08-.82s3.91-.71,5-.81c.81-.07,1.6,1,2.35,3.32q3.49,10.9,20.75,75.09Q872.55,441,872.64,443.9Zm-48.51-93.08q-1.18,4.8-3.9,20.74-2.94,16.92-2.85,19.79c0,1.28,1.34,1.88,3.91,1.8q2,0,6.55-.36c2.82-.24,4.36-1,4.62-2.11a6.45,6.45,0,0,0,.08-1.5q-.1-3.53-3.56-19.13Q825.62,355,824.13,350.82Z"/><path class="cls-5" d="M938.22,442.67q-5.51.48-14.37.83l-14.37.71-19.18,1.25a68.1,68.1,0,0,1-8.28.29c-1.26-.25-1.91-1.29-2-3.14q-.36-11.61-.87-34.8t-.87-34.8q-.39-12.35-1.62-37t-1.61-37c-.05-1.56.56-2.4,1.85-2.51s3.19-.17,5.74-.18,4.44-.06,5.69-.17c1.41-.13,3.49-.43,6.27-.92s4.85-.8,6.26-.92c.65-.06,1,.59,1,1.94v1.39q-.15,20.1.16,60.34l.82,28.12q.43,13.64.7,19.92l.21,2.54c.06.85.4,1.36,1,1.52l1.66-.15q5.77-.5,17.25-2.52T940.89,405c1.15-.1,1.75.66,1.81,2.3a268,268,0,0,1-.62,31.56c-.15,1.86-.57,3-1.24,3.42A8.2,8.2,0,0,1,938.22,442.67Z"/></g></svg>